<svg width="186" height="229" viewBox="0 0 186 229" fill="none" xmlns="http://www.w3.org/2000/svg">
<path d="M166.914 28.6641H90.2787V37.0147H166.914V28.6641Z" fill="#BDDBF2"/>
<path d="M176.902 82.9324H80.3016V91.283H176.902V82.9324Z" fill="#BDDBF2"/>
<path d="M111.944 20.9404L73.6713 185.086H80.3761L118.648 20.9404H111.944Z" fill="#BDDBF2"/>
<path d="M145.254 20.9404H138.549L176.826 185.086H183.531L145.254 20.9404Z" fill="#BDDBF2"/>
<path d="M185.275 137.195H71.9231V145.546H185.275V137.195Z" fill="#BDDBF2"/>
<path d="M167.626 145.557H174.282L176.047 153.039H169.315L167.626 145.557Z" fill="#290920"/>
<path d="M154.98 91.3206H161.664L163.07 97.1842H156.317L154.98 91.3206Z" fill="#290920"/>
<path d="M142.282 37.0522H148.997L150.27 42.5139H143.586L142.282 37.0522Z" fill="#290920"/>
<path d="M89.5624 145.557H82.9003L81.1412 153.039H87.8675L89.5624 145.557Z" fill="#290920"/>
<path d="M102.202 91.3206H95.5187L94.1178 97.1842H100.865L102.202 91.3206Z" fill="#290920"/>
<path d="M114.9 37.0522H108.185L106.912 42.5139H113.596L114.9 37.0522Z" fill="#290920"/>
<path d="M169.036 137.249H160.027L158.685 122.188H170.378L169.036 137.249Z" fill="#42A3E8"/>
<path d="M154.407 102.491C154.231 102.416 154.055 102.603 154.151 102.775C155.22 104.661 156.263 106.575 156.856 108.66C157.15 109.684 157.337 110.761 157.888 111.677C158.065 111.972 158.295 112.246 158.556 112.476C159.61 113.398 161.257 112.814 161.561 111.442C162.069 109.169 160.989 106.795 159.348 105.154C157.894 103.691 156.236 103.279 154.407 102.491Z" fill="#209E9B"/>
<path d="M159.947 107.54C159.327 105.112 159.423 102.571 159.305 100.068C159.215 98.0205 158.953 95.9141 158.102 94.0757C157.953 93.7487 158.316 93.4325 158.616 93.6255C160.958 95.1262 163.209 96.8092 164.866 99.0282C166.369 101.043 167.326 103.455 167.62 105.953C167.775 107.309 167.737 108.708 167.267 109.989C166.652 111.672 165.01 113.703 163.177 112.599C161.466 111.57 160.418 109.394 159.947 107.54Z" fill="#40C7A1"/>
<path d="M175.228 107.164C175.244 107.025 175.078 106.939 174.982 107.041C173.886 108.161 172.758 109.266 171.432 110.091C170.779 110.498 170.068 110.841 169.539 111.409C169.368 111.592 169.224 111.806 169.117 112.031C168.683 112.948 169.416 113.982 170.427 113.923C172.105 113.832 173.544 112.605 174.356 111.136C175.078 109.834 175.041 108.59 175.228 107.164Z" fill="#40C7A1"/>
<path d="M160.524 114.261C159.145 112.578 155.258 108.708 148.708 108.756C148.216 108.762 147.949 109.335 148.253 109.716C149.841 111.704 154.151 116.164 160.166 115.215C160.615 115.145 160.813 114.609 160.524 114.261Z" fill="#40C7A1"/>
<path d="M177.65 115.381C176.265 114.92 172.678 114.127 168.983 116.507C168.705 116.683 168.759 117.107 169.069 117.214C170.678 117.766 174.72 118.747 177.789 116.051C178.019 115.853 177.939 115.477 177.65 115.381Z" fill="#209E9B"/>
<path d="M160.829 135.775C162.032 135.566 163.235 135.518 164.438 135.507C165.641 135.513 166.844 135.561 168.047 135.775C166.844 135.99 165.641 136.038 164.438 136.043C163.235 136.033 162.032 135.984 160.829 135.775Z" fill="#290920"/>
<path d="M161.182 98.4761C161.867 100.373 162.434 102.314 162.958 104.265C163.476 106.216 163.92 108.188 164.31 110.171C164.658 112.16 165 114.159 165.166 116.174C165.331 118.19 165.412 120.221 165.192 122.236C165.176 121.732 165.166 121.229 165.16 120.725C165.15 120.221 165.096 119.722 165.064 119.219C165.043 118.715 164.984 118.216 164.93 117.718C164.877 117.219 164.834 116.721 164.754 116.223C164.508 114.229 164.171 112.246 163.786 110.273C163.439 108.29 162.99 106.328 162.556 104.361C162.343 103.375 162.113 102.394 161.877 101.419L161.182 98.4761Z" fill="#290920"/>
<path d="M176.955 115.451C175.843 115.526 174.746 115.671 173.656 115.847C172.57 116.035 171.496 116.265 170.458 116.608C169.421 116.941 168.416 117.38 167.518 117.981C166.614 118.581 165.833 119.363 165.267 120.328C165.448 119.798 165.737 119.304 166.069 118.844C166.411 118.388 166.828 117.991 167.277 117.638C168.175 116.93 169.229 116.448 170.298 116.094C171.378 115.751 172.485 115.531 173.602 115.429C174.725 115.327 175.848 115.322 176.955 115.451Z" fill="#290920"/>
<path d="M156.819 104.64C158.338 107.368 159.792 110.134 161.246 112.894L163.391 117.053C164.102 118.441 164.829 119.824 165.519 121.223L165.027 121.33C165.118 119.958 165.481 118.624 166.043 117.386C166.615 116.153 167.39 115.033 168.251 113.998C169.112 112.964 170.079 112.031 171.095 111.163C172.111 110.295 173.213 109.528 174.287 108.751C173.801 109.206 173.255 109.598 172.753 110.027C172.245 110.455 171.742 110.889 171.261 111.345C170.293 112.256 169.358 113.2 168.556 114.245C167.754 115.29 167.026 116.394 166.476 117.584C165.952 118.785 165.62 120.055 165.551 121.352L165.497 122.301L165.059 121.459C164.337 120.076 163.653 118.672 162.952 117.278L160.867 113.087C159.493 110.289 158.124 107.481 156.819 104.64Z" fill="#290920"/>
<path d="M151.381 110C152.911 110.429 154.392 111.023 155.835 111.699C157.279 112.374 158.664 113.178 159.974 114.105C161.268 115.043 162.497 116.11 163.465 117.407C163.952 118.05 164.369 118.747 164.684 119.492C164.984 120.242 165.187 121.025 165.219 121.824C165.069 121.041 164.812 120.291 164.444 119.599C164.091 118.902 163.652 118.254 163.139 117.664C162.128 116.474 160.931 115.456 159.658 114.545C158.386 113.628 157.033 112.824 155.648 112.069C154.958 111.688 154.253 111.334 153.536 110.997C152.83 110.643 152.109 110.321 151.381 110Z" fill="#290920"/>
<path d="M138.357 119.621C138.357 119.621 126.043 85.0228 135.33 80.5688C144.618 76.1148 141.992 120.023 141.992 120.023L138.357 119.621Z" fill="#158280"/>
<path d="M139.838 119.958C139.838 119.958 131.09 102.887 129.229 89.9699C128.732 86.5128 124.048 85.7839 122.541 88.9355C122.519 88.9784 122.498 89.0212 122.482 89.0695C120.466 93.5181 126.786 115.778 138.495 120.366L139.838 119.958Z" fill="#158280"/>
<path d="M140.645 119.015C140.645 119.015 142.527 94.1935 150.873 94.4668C159.219 94.7402 144.281 113.216 144.013 119.69L140.645 119.015Z" fill="#158280"/>
<path d="M138.356 119.621C138.356 119.621 127.588 99.6819 121.038 101.022C114.488 102.362 121.84 116.699 135.742 120.585L138.356 119.621Z" fill="#158280"/>
<path d="M147.67 119.647C147.665 119.299 147.376 119.026 147.034 119.026H143.142H131.614H127.722C127.374 119.026 127.091 119.299 127.085 119.647C127.021 122.617 127.016 135.287 131.614 137.201C131.694 137.233 131.78 137.249 131.871 137.249H132.689H142.078H142.896C142.981 137.249 143.072 137.233 143.152 137.201C147.74 135.287 147.735 122.617 147.67 119.647Z" fill="#FFB41B"/>
<path d="M127.812 121.438C129.326 121.325 130.844 121.277 132.357 121.234C133.87 121.186 135.389 121.18 136.902 121.17C138.415 121.175 139.934 121.18 141.447 121.234L143.719 121.309C144.478 121.352 145.232 121.379 145.992 121.443C145.232 121.502 144.478 121.529 143.719 121.577L141.447 121.652C139.934 121.7 138.415 121.706 136.902 121.716C135.389 121.711 133.87 121.7 132.357 121.652C130.839 121.598 129.326 121.545 127.812 121.438Z" fill="#290920"/>
<path d="M120.279 103.3C120.749 104.029 121.215 104.758 121.706 105.471C122.182 106.194 122.669 106.907 123.177 107.609C124.182 109.014 125.203 110.402 126.31 111.726C127.401 113.055 128.55 114.341 129.817 115.504C129.973 115.649 130.128 115.805 130.288 115.949L130.785 116.357C131.122 116.625 131.438 116.919 131.801 117.145C132.154 117.386 132.496 117.654 132.871 117.868C133.25 118.066 133.63 118.275 134.009 118.49C132.357 117.938 130.887 116.925 129.55 115.815C128.197 114.706 127.016 113.409 125.904 112.069C124.797 110.723 123.77 109.314 122.84 107.84C121.904 106.377 121.022 104.876 120.279 103.3Z" fill="#290920"/>
<path d="M125.808 88.2068C126.075 89.5307 126.342 90.8492 126.647 92.157C126.936 93.4701 127.246 94.7833 127.577 96.0858C128.246 98.6906 128.946 101.29 129.818 103.831C130.646 106.382 131.625 108.89 132.823 111.286C133.421 112.482 134.09 113.65 134.86 114.738C135.619 115.837 136.512 116.85 137.571 117.686C136.442 116.946 135.485 115.955 134.651 114.893C133.822 113.816 133.111 112.664 132.459 111.474C131.796 110.289 131.256 109.046 130.732 107.797C130.213 106.548 129.743 105.278 129.315 103.997C128.481 101.424 127.77 98.8139 127.187 96.1822C126.604 93.5452 126.118 90.8867 125.808 88.2068Z" fill="#290920"/>
<path d="M136.144 81.9517C136.903 84.8996 137.534 87.885 138.106 90.8758C138.684 93.8666 139.138 96.8842 139.555 99.9018C139.935 102.925 140.224 105.969 140.336 109.019C140.347 109.78 140.389 110.546 140.373 111.308L140.325 113.596L140.117 115.879C140.004 116.635 139.849 117.386 139.71 118.131C140.197 115.118 140.106 112.063 139.924 109.04C139.732 106.012 139.448 102.984 139.026 99.9715C138.657 96.9539 138.192 93.947 137.705 90.9455C137.465 89.4447 137.208 87.944 136.946 86.4486C136.689 84.9478 136.417 83.4524 136.144 81.9517Z" fill="#290920"/>
<path d="M151.024 95.9785C150.356 97.8813 149.634 99.7679 148.901 101.655C148.169 103.541 147.394 105.406 146.64 107.288C145.848 109.153 145.078 111.024 144.266 112.873L143.036 115.649C142.608 116.566 142.196 117.493 141.758 118.404C142.09 117.445 142.448 116.501 142.795 115.553L143.886 112.723C144.619 110.841 145.394 108.976 146.142 107.1C146.934 105.24 147.704 103.375 148.516 101.521C149.329 99.6607 150.147 97.8116 151.024 95.9785Z" fill="#290920"/>
<path d="M146.735 67.8982C146.735 67.8982 140.292 44.2613 146.425 41.8119C152.552 39.3678 148.612 68.1448 148.612 68.1448L146.735 67.8982Z" fill="#40C7A1"/>
<path d="M146.735 67.8982C146.735 67.8982 144.296 47.1449 140.415 46.2659C136.538 45.3869 140.976 64.6984 145.355 68.3377L146.735 67.8982Z" fill="#40C7A1"/>
<path d="M144.484 68.5842C144.484 68.5842 142.794 56.546 136.726 55.3561C130.657 54.1662 143.356 69.088 143.356 69.088L144.484 68.5842Z" fill="#40C7A1"/>
<path d="M148.302 67.8982C148.302 67.8982 150.242 47.5844 154.744 48.0239C159.246 48.4634 149.868 68.5253 149.868 68.5253L148.302 67.8982Z" fill="#40C7A1"/>
<path d="M150.05 68.0215C150.05 68.0215 154.114 54.9167 159.37 55.5438C164.626 56.1709 151.991 68.6486 151.991 68.6486L150.05 68.0215Z" fill="#40C7A1"/>
<path d="M154.857 67.7106C152.991 67.0513 147.633 65.5988 140.891 67.7213C140.404 67.8713 140.073 68.3216 140.073 68.8308C140.062 71.3445 140.228 78.8483 142.532 82.2679C142.741 82.5787 143.099 82.7556 143.479 82.7556H152.413C152.905 82.7556 153.343 82.4448 153.504 81.9785C154.204 79.9578 155.937 74.2978 155.621 68.7504C155.6 68.2787 155.3 67.866 154.857 67.7106Z" fill="#004B80"/>
<path d="M142.735 66.3171C141.49 64.7628 140.378 63.1227 139.303 61.4611C138.239 59.7889 137.212 58.0951 136.319 56.3157C137.565 57.87 138.677 59.5101 139.752 61.1717C140.816 62.844 141.848 64.5377 142.735 66.3171Z" fill="#290920"/>
<path d="M144.789 65.245C144.286 63.8086 143.848 62.3561 143.409 60.8982C142.971 59.4457 142.57 57.9771 142.169 56.5138C141.778 55.0452 141.393 53.5767 141.046 52.0973L140.527 49.8784C140.372 49.1333 140.201 48.3937 140.062 47.6433C140.319 48.3615 140.538 49.0851 140.778 49.8087L141.441 51.9901C141.88 53.4427 142.281 54.9113 142.682 56.3745C143.067 57.8431 143.457 59.3117 143.805 60.791C144.158 62.2703 144.5 63.755 144.789 65.245Z" fill="#290920"/>
<path d="M146.927 65.1594C146.81 63.337 146.751 61.5147 146.703 59.687C146.644 57.8646 146.633 56.0369 146.617 54.2146C146.617 52.3922 146.617 50.5645 146.655 48.7422L146.719 46.0087C146.762 45.0975 146.783 44.1863 146.836 43.2698C146.901 44.1809 146.933 45.0921 146.981 46.0033L147.066 48.7368C147.12 50.5592 147.136 52.3869 147.152 54.2092C147.152 56.0316 147.152 57.8593 147.109 59.6816C147.072 61.5093 147.029 63.3317 146.927 65.1594Z" fill="#290920"/>
<path d="M150.044 65.2452C150.312 63.8891 150.633 62.5492 150.959 61.2146C151.285 59.8746 151.648 58.5507 152.012 57.2215C152.392 55.8976 152.766 54.5737 153.183 53.2606L153.814 51.2935C154.044 50.645 154.252 49.9857 154.498 49.3425C154.37 50.0232 154.21 50.6932 154.065 51.3632L153.579 53.3731C153.253 54.7131 152.889 56.037 152.525 57.3662C152.146 58.6901 151.771 60.014 151.349 61.3218C150.943 62.6403 150.52 63.9535 150.044 65.2452Z" fill="#290920"/>
<path d="M152.541 65.6042C153.514 63.9427 154.621 62.383 155.76 60.8447C156.909 59.3171 158.091 57.811 159.406 56.4067C158.433 58.0683 157.326 59.628 156.188 61.1663C155.033 62.6938 153.851 64.2 152.541 65.6042Z" fill="#290920"/>
<path d="M141.131 69.6242C143.302 69.4152 145.468 69.3669 147.638 69.3562C149.809 69.3616 151.975 69.4098 154.145 69.6242C151.975 69.8386 149.809 69.8868 147.638 69.8922C145.473 69.8868 143.302 69.8332 141.131 69.6242Z" fill="#290920"/>
<path d="M143.452 81.507C144.879 81.298 146.302 81.2497 147.729 81.239C149.157 81.2444 150.579 81.2926 152.007 81.507C150.579 81.7214 149.157 81.7696 147.729 81.775C146.302 81.7643 144.874 81.716 143.452 81.507Z" fill="#290920"/>
<path d="M103.228 11.4378C103.228 11.4378 102.132 9.89955 102.993 6.3031C103.014 6.2227 103.11 6.19054 103.169 6.2495C103.704 6.77476 105.094 8.43632 105.217 9.82987C105.356 11.4378 103.228 11.4378 103.228 11.4378Z" fill="#24B0AD"/>
<path d="M104.96 8.83816C104.96 8.83816 105.992 7.53572 106.121 6.08856C106.137 5.92241 106.356 5.87417 106.442 6.01353C107.11 7.12301 108.457 9.86725 106.736 11.6896L104.96 8.83816Z" fill="#158A87"/>
<path d="M101.806 15.002C101.806 15.002 99.2554 12.9224 100.095 7.1391C100.122 6.96758 100.319 6.88183 100.458 6.9783C101.437 7.64829 103.415 9.37951 103.683 11.9201C104.009 14.9591 101.806 15.002 101.806 15.002Z" fill="#158A87"/>
<path d="M105.848 14.1767C105.848 14.1767 106.447 11.1323 107.89 8.92404C107.987 8.77396 108.217 8.80076 108.27 8.97228C108.644 10.189 109.692 13.764 109.43 14.6376C109.104 15.6935 105.848 14.1767 105.848 14.1767Z" fill="#24B0AD"/>
<path d="M102.774 13.212L98.7047 9.47614C98.5603 9.34215 98.3304 9.43327 98.309 9.62622C98.1914 10.7571 98.0577 13.63 99.5602 14.3643C101.442 15.2809 102.544 14.4501 102.774 13.212Z" fill="#24B0AD"/>
<path d="M107.399 14.3748C107.399 14.3748 108.96 12.783 110.553 11.9844C110.714 11.904 110.906 12.0058 110.922 12.188C111.008 13.2975 111.093 16.6957 109.094 18.0731L106.041 17.0762L107.399 14.3748Z" fill="#4BCFCC"/>
<path d="M103.64 17.4246C103.64 17.4246 102.298 15.8274 102.715 13.5977C103.132 11.368 104.436 9.51884 104.853 8.42543C105.137 7.69114 108.42 14.4767 107.874 16.3687C107.329 18.2607 105.944 19.7722 105.944 19.7722C105.944 19.7722 104.308 19.5685 103.64 17.4246Z" fill="#4BCFCC"/>
<path d="M99.8489 18.1214C99.8489 18.1214 97.5551 16.8243 96.6034 13.4852C96.5659 13.3512 96.6729 13.2172 96.8119 13.2332C97.6834 13.3244 100.335 13.6942 101.667 15.0127C103.276 16.6046 99.8489 18.1214 99.8489 18.1214Z" fill="#4BCFCC"/>
<path d="M100.982 17.7624C100.982 17.7624 100.02 15.4362 102.453 12.3328C102.538 12.2203 102.709 12.2364 102.779 12.3596C103.217 13.1583 104.501 15.7095 104.196 17.8106L100.982 17.7624Z" fill="#158A87"/>
<path d="M104.469 17.4407C104.469 17.4407 104.971 15.6023 106.302 14.1766C106.949 13.4852 107.281 13.0189 107.452 12.7241C107.538 12.5794 107.751 12.6008 107.805 12.7616C108.185 13.8818 108.928 16.6796 107.404 17.8106L104.469 17.4407Z" fill="#158A87"/>
<path d="M100.581 28.7126H107.741C109.644 27.4584 111.269 25.1429 111.745 22.3344C112.419 18.3467 110.152 16.937 110.152 16.937H98.1645C98.1645 16.937 95.9028 18.3467 96.5712 22.3344C97.047 25.1376 98.6778 27.453 100.581 28.7126Z" fill="#42A3E8"/>
<path d="M98.0046 17.634C100.111 17.4249 102.223 17.3767 104.33 17.366C106.437 17.3713 108.548 17.4196 110.655 17.634C108.548 17.8484 106.437 17.8966 104.33 17.902C102.223 17.8966 100.111 17.843 98.0046 17.634Z" fill="#290920"/>
<path d="M108.833 16.0258C108.913 15.4309 109.143 14.9217 109.399 14.4232C109.672 13.9355 109.982 13.4691 110.437 13.0779C110.356 13.6728 110.132 14.1874 109.87 14.6805C109.592 15.1682 109.282 15.6345 108.833 16.0258Z" fill="#290920"/>
<path d="M106.244 16.385C106.308 15.8651 106.511 15.4309 106.752 15.0182C107.003 14.6109 107.292 14.2303 107.714 13.9302C107.65 14.4501 107.447 14.8842 107.206 15.2969C106.96 15.6989 106.672 16.0848 106.244 16.385Z" fill="#290920"/>
<path d="M102.234 16.3849C102.089 15.9025 102.111 15.4416 102.17 14.986C102.244 14.5304 102.357 14.0855 102.635 13.6621C102.779 14.1499 102.758 14.6108 102.699 15.061C102.624 15.5113 102.512 15.9615 102.234 16.3849Z" fill="#290920"/>
<path d="M97.9562 14.3269C98.4267 14.5145 98.7796 14.82 99.1057 15.147C99.4212 15.49 99.7046 15.8545 99.8703 16.3368C99.3998 16.1493 99.0416 15.8491 98.7208 15.5168C98.4107 15.1791 98.1273 14.8093 97.9562 14.3269Z" fill="#290920"/>
<path d="M98.983 11.0681C99.4268 11.4004 99.7262 11.8131 99.9936 12.2473C100.245 12.6921 100.464 13.1531 100.544 13.6998C100.101 13.3675 99.8011 12.9548 99.5338 12.5206C99.2825 12.0811 99.0632 11.6148 98.983 11.0681Z" fill="#290920"/>
<path d="M104.731 14.3268C104.57 13.6032 104.576 12.8957 104.618 12.1828C104.677 11.4753 104.779 10.7732 105.041 10.0818C105.201 10.8054 105.196 11.5129 105.153 12.2257C105.094 12.9332 104.993 13.6354 104.731 14.3268Z" fill="#290920"/>
<path d="M156.899 23.8779C156.899 23.8779 152.531 16.283 156.407 12.4828C160.279 8.6827 163.904 13.2278 164.15 14.7929C164.396 16.3634 160.936 24.044 160.936 24.044L156.899 23.8779Z" fill="#158280"/>
<path d="M158.3 13.5548C158.3 13.5548 158.22 6.78535 154.76 5.46147C151.301 4.13759 148.745 9.17584 150.312 11.0786C151.878 12.976 157.562 13.9675 157.562 13.9675L158.3 13.5548Z" fill="#158280"/>
<path d="M152.942 5.87945C152.942 5.87945 152.199 0.841197 155.001 0.101539C156.199 -0.214692 156.856 0.251614 157.214 0.894795C157.738 1.83277 157.546 3.00657 156.824 3.80519L154.338 6.54407L152.942 5.87945Z" fill="#158280"/>
<path d="M156.049 28.1121C156.033 28.1657 156.028 28.2139 156.028 28.2729C156.028 28.4283 156.092 28.5623 156.183 28.6695H157.092C157.188 28.5623 157.247 28.4229 157.247 28.2729C157.247 28.2246 157.241 28.1764 157.231 28.1335H160.358C160.348 28.1817 160.342 28.2246 160.342 28.2729C160.342 28.4283 160.407 28.5623 160.497 28.6695H161.406C161.503 28.5623 161.561 28.4229 161.561 28.2729C161.561 28.2139 161.551 28.1603 161.535 28.1067C163.764 27.083 163.149 24.4727 162.882 23.6205C162.829 23.4597 162.679 23.3472 162.508 23.3472H155.06C154.889 23.3472 154.739 23.4544 154.685 23.6205C154.413 24.4727 153.798 27.0937 156.049 28.1121Z" fill="#FF6168"/>
<path d="M159.359 11.0679C158.936 11.4538 158.541 11.8558 158.188 12.2953C157.824 12.7241 157.487 13.1743 157.204 13.6513C156.643 14.6054 156.204 15.6398 156.103 16.7279C155.985 17.8213 156.054 18.9522 156.215 20.0563C156.3 20.6084 156.418 21.1605 156.578 21.7018C156.723 22.2485 156.91 22.7845 157.135 23.3098C156.493 22.3611 156.087 21.2623 155.814 20.1367C155.552 19.0058 155.456 17.8427 155.573 16.6689C155.702 15.4844 156.188 14.3695 156.862 13.4262C157.541 12.4829 158.38 11.6628 159.359 11.0679Z" fill="#290920"/>
<path d="M161.54 11.7808C162.032 12.6491 162.337 13.6299 162.444 14.6429C162.508 15.1467 162.492 15.6613 162.438 16.1758C162.38 16.685 162.278 17.1674 162.176 17.6605C161.738 19.6061 161.171 21.5089 160.428 23.358C160.765 21.3963 161.241 19.4721 161.658 17.548C161.877 16.5778 162.075 15.6452 162.032 14.6751C161.995 13.7049 161.84 12.7295 161.54 11.7808Z" fill="#290920"/>
<path d="M160.337 11.2449C160.262 13.2816 160.027 15.3023 159.754 17.3122C159.466 19.3222 159.134 21.3267 158.642 23.3045C158.717 21.2624 158.947 19.2471 159.225 17.2372C159.519 15.2326 159.845 13.228 160.337 11.2449Z" fill="#290920"/>
<path d="M149.954 9.10083C150.392 9.49746 150.825 9.88337 151.269 10.2532C151.713 10.6123 152.157 10.9768 152.638 11.2769C153.108 11.5824 153.605 11.8504 154.124 12.0595C154.653 12.2524 155.199 12.365 155.792 12.4132C155.226 12.5901 154.6 12.5954 154.001 12.4615C153.408 12.3221 152.852 12.0487 152.344 11.7272C151.836 11.3948 151.387 10.9982 150.98 10.5587C150.585 10.1138 150.221 9.63681 149.954 9.10083Z" fill="#290920"/>
<path d="M152.274 5.61688C152.969 5.54184 153.697 5.70263 154.338 6.01887C154.991 6.32974 155.552 6.81212 156.006 7.36955C156.456 7.93769 156.771 8.59159 157.001 9.26157C157.113 9.59924 157.177 9.94763 157.258 10.2853C157.29 10.639 157.338 10.9821 157.349 11.3305C157.215 11.0035 157.119 10.6712 157.001 10.3496C156.862 10.0334 156.75 9.71716 156.611 9.40629C156.445 9.11149 156.333 8.7899 156.14 8.51655C156.049 8.3772 155.98 8.22712 155.878 8.09312L155.579 7.6965C155.167 7.18195 154.68 6.73172 154.124 6.37797C153.579 6.03494 152.959 5.75623 152.274 5.61688Z" fill="#290920"/>
<path d="M151.205 6.87109C152.231 7.53571 153.146 8.31825 154.039 9.13295C154.916 9.95836 155.771 10.8106 156.509 11.7861C155.482 11.1214 154.568 10.3389 153.675 9.52422C152.798 8.6988 151.943 7.84659 151.205 6.87109Z" fill="#290920"/>
<path d="M153.611 4.77012C153.52 4.29309 153.536 3.79999 153.6 3.3176C153.67 2.83522 153.798 2.35819 154.012 1.9026C154.231 1.45774 154.52 1.02895 154.915 0.70736C155.311 0.385769 155.798 0.192815 156.284 0.166016C155.857 0.407209 155.504 0.68056 155.204 1.00751C154.921 1.34518 154.691 1.72573 154.498 2.13308C154.295 2.53507 154.151 2.96921 154.007 3.40872C153.868 3.85359 153.739 4.30381 153.611 4.77012Z" fill="#290920"/>
<path d="M154.632 5.21499C155.172 4.51821 155.653 3.84287 156.033 3.10857C156.231 2.74947 156.391 2.36892 156.536 1.97765C156.685 1.58638 156.776 1.17903 156.904 0.750244C157.001 1.17903 157.027 1.63998 156.942 2.08484C156.872 2.52971 156.717 2.96386 156.509 3.36049C156.295 3.75712 156.033 4.12695 155.717 4.44318C155.402 4.75941 155.044 5.03812 154.632 5.21499Z" fill="#290920"/>
<path d="M48.5412 49.3477C47.0013 49.3691 45.5309 50.0552 44.5899 51.2719C38.1737 59.5368 36.8798 76.967 39.5211 81.4907C42.6383 86.8184 39.4195 88.7318 40.1681 93.5449C40.7776 97.4576 46.2634 100.427 48.3006 101.402C48.7818 101.633 49.3325 101.628 49.8137 101.397C51.9203 100.379 57.7376 97.2272 58.2349 93.2716C58.8391 88.437 55.5668 86.62 58.5236 81.2012C61.0313 76.6025 59.2134 59.2205 52.5513 51.1486C51.5675 49.9641 50.0757 49.3263 48.5412 49.3477Z" fill="#24B0AD"/>
<path d="M93.8338 96.8573C92.6682 95.855 91.1123 95.3887 89.5992 95.6727C79.3333 97.6023 66.8325 109.791 65.8274 114.931C64.6404 120.987 60.9618 120.285 58.3418 124.391C56.2085 127.725 58.3579 133.594 59.2348 135.679C59.4433 136.172 59.8603 136.536 60.3683 136.681C62.6193 137.319 69.0568 138.825 72.0457 136.193C75.6975 132.972 74.4464 129.44 80.2423 127.344C85.1613 125.565 95.2935 111.34 95.641 100.877C95.6892 99.3335 94.9994 97.8596 93.8338 96.8573Z" fill="#209E9B"/>
<path d="M1.83729 108.081C0.858828 108.906 0.270681 110.123 0.302762 111.404C0.50594 120.114 8.8202 132.029 12.8944 133.546C17.6959 135.336 16.6265 138.262 19.6421 140.969C22.0909 143.167 27.1811 142.186 29.0043 141.741C29.4374 141.634 29.7903 141.344 29.9774 140.942C30.8008 139.173 32.8968 134.076 31.1377 131.268C28.9883 127.832 25.9299 128.389 24.9889 123.34C24.1922 119.058 13.8943 108.815 5.37152 107.127C4.10968 106.88 2.81041 107.256 1.83729 108.081Z" fill="#209E9B"/>
<path d="M79.0825 127.537C78.1682 126.899 77.0186 126.674 75.9493 126.985C68.6883 129.108 60.5452 138.782 60.187 142.561C59.7592 147.009 57.0644 146.768 55.4657 149.909C54.1665 152.466 56.1287 156.539 56.9147 157.981C57.1019 158.319 57.4227 158.555 57.8023 158.624C59.4705 158.924 64.2184 159.546 66.1807 157.44C68.5814 154.862 67.4318 152.401 71.458 150.477C74.8746 148.848 81.1677 137.871 80.6758 130.303C80.601 129.188 79.9968 128.175 79.0825 127.537Z" fill="#158280"/>
<path d="M24.7534 75.3966C23.5344 75.7879 22.5292 76.6884 22.0693 77.8836C18.9522 86.0145 22.1068 100.202 25.2988 103.166C29.0576 106.655 26.9563 108.955 28.7154 112.61C30.143 115.579 35.2224 116.614 37.0778 116.898C37.5162 116.968 37.9547 116.828 38.2808 116.528C39.7137 115.21 43.5848 111.292 43.0288 108.027C42.3497 104.029 39.3074 103.375 40.3554 98.3475C41.2483 94.0811 35.6181 80.6815 28.3786 75.863C27.3092 75.1555 25.9672 75.0054 24.7534 75.3966Z" fill="#209E9B"/>
<path d="M75.2165 77.3099C74.0776 76.7203 72.7302 76.6452 71.5646 77.1652C63.6246 80.7026 55.8451 92.9767 56.0162 97.3289C56.214 102.464 53.1075 102.598 51.7708 106.425C50.6854 109.533 53.5459 113.869 54.6581 115.386C54.9201 115.745 55.3264 115.96 55.7702 115.976C57.7164 116.056 63.2129 116.035 65.1271 113.333C67.4636 110.026 65.774 107.405 70.0622 104.597C73.7033 102.212 79.1731 88.7478 77.4514 80.2095C77.1948 78.9553 76.35 77.8995 75.2165 77.3099Z" fill="#209E9B"/>
<path d="M47.1191 79.2127C45.8412 79.1859 44.5954 79.7058 43.772 80.6866C38.1793 87.3543 36.5538 101.804 38.6123 105.642C41.0344 110.166 38.3022 111.656 38.7727 115.686C39.1577 118.956 43.6223 121.598 45.2851 122.472C45.6755 122.681 46.1353 122.692 46.5416 122.515C48.3275 121.732 53.2572 119.299 53.7972 116.029C54.4549 112.031 51.7868 110.418 54.4175 106.007C56.6471 102.265 55.6793 87.7562 50.402 80.8367C49.616 79.8237 48.397 79.2448 47.1191 79.2127Z" fill="#158280"/>
<path d="M23.8556 144.244C23.0375 144.828 22.4975 145.739 22.4387 146.741C22.0377 153.564 27.7694 163.416 30.8545 164.863C34.4957 166.573 33.4691 168.792 35.6506 171.107C37.4204 172.983 41.4626 172.549 42.9169 172.319C43.2591 172.265 43.5585 172.056 43.7296 171.756C44.4888 170.427 46.4511 166.578 45.2588 164.268C43.7991 161.443 41.3717 161.679 40.96 157.67C40.6124 154.272 33.2232 145.594 26.668 143.724C25.7109 143.456 24.6736 143.665 23.8556 144.244Z" fill="#158280"/>
<path d="M57.9359 228.007H38.0031L25.8712 181.672H70.0731L57.9359 228.007Z" fill="#FFB41B"/>
<path d="M29.967 185.488C32.9078 185.375 35.8485 185.327 38.7892 185.284C41.73 185.241 44.6707 185.247 47.6114 185.22C50.5522 185.241 53.4929 185.241 56.4336 185.279L60.8447 185.354C62.3151 185.397 63.7855 185.423 65.2559 185.488C63.7855 185.547 62.3151 185.573 60.8447 185.622L56.4336 185.697C53.4929 185.74 50.5522 185.74 47.6114 185.756C44.6707 185.734 41.73 185.74 38.7892 185.691C35.8485 185.649 32.9078 185.595 29.967 185.488Z" fill="#290920"/>
<path d="M48.0229 181.715C49.4612 176.703 51.215 171.788 53.1398 166.943C55.07 162.098 57.2462 157.354 59.6469 152.718C62.1064 148.119 64.7905 143.622 67.9665 139.474C71.1478 135.357 74.805 131.488 79.2856 128.802C77.1041 130.223 75.1258 131.927 73.3186 133.787C71.506 135.641 69.8218 137.625 68.2926 139.72C66.7634 141.816 65.2984 143.96 63.9457 146.179C62.5983 148.398 61.3204 150.665 60.112 152.964C57.6792 157.558 55.5138 162.291 53.5088 167.093C52.5036 169.489 51.5465 171.911 50.6322 174.35C49.7179 176.789 48.841 179.238 48.0229 181.715Z" fill="#290920"/>
<path d="M24.6201 145.691C27.0101 148.376 29.2879 151.158 31.5121 153.977C33.7364 156.802 35.8698 159.696 37.9497 162.633C39.9868 165.597 41.9704 168.604 43.7295 171.75C44.6118 173.321 45.4298 174.929 46.1516 176.58C46.8467 178.236 47.483 179.946 47.7396 181.731C47.3654 179.972 46.681 178.3 45.911 176.687C45.1464 175.068 44.291 173.492 43.3713 171.954C41.548 168.867 39.5751 165.871 37.5112 162.939C35.4741 159.986 33.3407 157.102 31.186 154.229C30.1113 152.793 29.0205 151.367 27.9244 149.947C26.839 148.516 25.7269 147.106 24.6201 145.691Z" fill="#290920"/>
<path d="M92.658 97.8545L84.3972 106.988L76.0937 116.083L67.7634 125.152C66.3732 126.664 64.9723 128.164 63.6517 129.719C62.3417 131.289 61.112 132.924 59.9731 134.618C55.4069 141.398 52.2951 149.164 50.9745 157.247C50.6376 159.262 50.4184 161.31 50.1671 163.346L49.4239 169.467L47.8787 181.699C48.7502 173.525 49.5255 165.351 50.5681 157.183C51.8139 149.025 54.9578 141.178 59.5293 134.318C60.6842 132.608 61.9354 130.968 63.2614 129.386C64.6034 127.816 66.015 126.326 67.4105 124.82L75.7942 115.799L84.2047 106.805L92.658 97.8545Z" fill="#290920"/>
<path d="M47.6539 181.736C46.6006 178.279 45.3869 174.875 44.1037 171.498C42.8258 168.122 41.4677 164.772 40.0241 161.47C37.1475 154.851 33.9394 148.376 30.341 142.127C28.5445 139.002 26.6411 135.936 24.636 132.94C22.6203 129.949 20.4655 127.06 18.2306 124.23C15.9635 121.427 13.5575 118.742 11.0284 116.174C8.47267 113.634 5.77254 111.238 2.91736 109.024C5.82066 111.163 8.58495 113.5 11.2102 115.987C13.7874 118.522 16.2362 121.191 18.546 123.973C20.8398 126.771 22.9945 129.681 25.037 132.666C27.0581 135.668 28.983 138.734 30.8009 141.859C34.3725 148.151 37.5966 154.642 40.3983 161.309C41.7992 164.643 43.1199 168.009 44.3443 171.413C45.5527 174.816 46.6862 178.252 47.6539 181.736Z" fill="#290920"/>
<path d="M46.7609 81.6836L47.0442 94.1827L47.2635 106.677L47.627 131.675L47.8623 156.668L47.9371 169.167L47.9532 181.666L47.6752 169.172L47.4506 156.673L47.0924 131.68L46.8571 106.682L46.7823 94.1827L46.7609 81.6836Z" fill="#290920"/>
<path d="M74.5644 78.4678C72.7893 81.1316 71.0997 83.8491 69.4743 86.5987C67.8382 89.3429 66.2608 92.13 64.7424 94.9439C61.7161 100.577 58.8983 106.323 56.4495 112.229C53.9632 118.115 51.8459 124.166 50.2472 130.351C48.6592 136.536 47.6487 142.893 47.6059 149.303C47.515 146.098 47.7128 142.893 48.0871 139.709C48.4774 136.526 49.119 133.374 49.8516 130.255C51.3754 124.016 53.5034 117.948 55.9576 112.026C58.4545 106.119 61.2723 100.352 64.3841 94.751C67.5066 89.1553 70.8484 83.6829 74.5644 78.4678Z" fill="#290920"/>
<path d="M24.6201 76.6831C26.9139 82.7344 29.1061 88.8285 31.2608 94.9334C33.4156 101.038 35.4901 107.17 37.5326 113.312C39.5323 119.471 41.5106 125.64 43.3125 131.857C44.2107 134.966 45.0769 138.091 45.8576 141.232C46.2425 142.807 46.6008 144.383 46.9269 145.975C47.2263 147.567 47.5311 149.164 47.606 150.783C47.2691 147.562 46.435 144.421 45.6063 141.301C44.7722 138.177 43.8632 135.073 42.9168 131.975C41.0348 125.785 39.0618 119.621 37.0247 113.478C35.025 107.325 32.9397 101.194 30.8705 95.062L24.6201 76.6831Z" fill="#290920"/>
<path d="M48.1459 50.6877C48.3437 53.0622 48.488 55.4366 48.6164 57.8163C48.75 60.1907 48.8356 62.5705 48.9479 64.9503C49.0174 67.3301 49.1083 69.7098 49.1564 72.0896L49.2152 75.6593C49.2152 76.8491 49.2366 78.039 49.2205 79.2343C49.1136 78.0497 49.0441 76.8599 48.9586 75.67L48.75 72.1057C48.6164 69.7313 48.5308 67.3515 48.4239 64.9717C48.3597 62.592 48.2635 60.2122 48.2207 57.8324C48.1619 55.4473 48.1245 53.0675 48.1459 50.6877Z" fill="#290920"/>
<path d="M24.9301 153.061C26.347 153.431 27.705 153.956 29.0417 154.513C30.3731 155.087 31.6937 155.698 32.9502 156.459C31.5333 156.089 30.1753 155.569 28.8386 155.006C27.5019 154.428 26.1865 153.822 24.9301 153.061Z" fill="#290920"/>
<path d="M3.90125 117.863C5.10962 118.238 6.29661 118.667 7.47825 119.101C8.66523 119.529 9.83083 120.001 11.0018 120.473C12.1674 120.955 13.3276 121.438 14.4772 121.957L16.1989 122.74C16.7656 123.019 17.3377 123.281 17.8991 123.576C17.2949 123.394 16.7015 123.18 16.1026 122.981L14.3275 122.338C13.1458 121.904 11.9749 121.438 10.8039 120.966C9.63835 120.484 8.4781 120.001 7.32854 119.481C6.16828 118.967 5.02407 118.441 3.90125 117.863Z" fill="#290920"/>
<path d="M22.5238 85.2588C23.39 86.186 24.2134 87.1562 25.0261 88.1263C25.8442 89.0911 26.6301 90.088 27.4161 91.0796C28.1914 92.0819 28.9667 93.0842 29.7045 94.1079L30.8167 95.6515C31.1696 96.1768 31.5385 96.6913 31.8807 97.2273C31.4422 96.7664 31.0305 96.284 30.6081 95.8123L29.3784 94.3598C28.5603 93.3897 27.7744 92.3981 26.9884 91.4065C26.2131 90.4042 25.4378 89.4019 24.6999 88.3729C23.9567 87.3545 23.2189 86.3254 22.5238 85.2588Z" fill="#290920"/>
<path d="M52.1079 92.7625C51.8138 94.2203 51.4609 95.6675 51.1027 97.1039C50.7498 98.5457 50.3541 99.9768 49.9585 101.408C49.5521 102.834 49.1458 104.265 48.6966 105.68L48.0229 107.802C47.7823 108.504 47.5524 109.212 47.2958 109.909C47.4401 109.18 47.6112 108.456 47.7716 107.727L48.301 105.562C48.6539 104.12 49.0495 102.689 49.4452 101.258C49.8515 99.8321 50.2579 98.401 50.707 96.986C51.1508 95.5764 51.6053 94.1614 52.1079 92.7625Z" fill="#290920"/>
<path d="M65.0309 83.2917C64.9774 84.5031 64.8651 85.709 64.7421 86.915C64.6299 88.121 64.4695 89.3216 64.3144 90.5168C64.1433 91.7121 63.9722 92.9127 63.7637 94.1026L63.4429 95.8927C63.3146 96.4877 63.2076 97.0826 63.0686 97.6722C63.09 97.0665 63.1435 96.4609 63.1862 95.8552L63.3573 94.049C63.475 92.843 63.63 91.6424 63.7851 90.4471C63.9562 89.2519 64.1273 88.0513 64.3358 86.8614C64.5443 85.6662 64.7582 84.4763 65.0309 83.2917Z" fill="#290920"/>
<path d="M79.3763 102.228C79.2373 103.386 78.9914 104.522 78.7561 105.658C78.5209 106.795 78.2428 107.92 77.9648 109.046C77.6761 110.166 77.382 111.292 77.0505 112.401L76.5479 114.068C76.3607 114.62 76.195 115.172 75.9918 115.719C76.0774 115.14 76.195 114.572 76.2966 114.004L76.6548 112.299C76.8954 111.163 77.1735 110.037 77.4515 108.917C77.7402 107.797 78.0343 106.671 78.3604 105.562L78.8523 103.895L79.3763 102.228Z" fill="#290920"/>
<path d="M74.9226 140.374C73.9815 141.055 73.0137 141.693 72.0406 142.314C71.0729 142.947 70.0784 143.536 69.0892 144.131C68.0893 144.715 67.0948 145.294 66.0736 145.841L64.5444 146.661C64.0258 146.918 63.5125 147.186 62.9832 147.428C63.4483 147.079 63.9349 146.763 64.4108 146.431L65.8651 145.482C66.8382 144.849 67.8273 144.26 68.8165 143.665C69.8164 143.081 70.8162 142.502 71.8321 141.955C72.8533 141.414 73.8746 140.867 74.9226 140.374Z" fill="#290920"/>
<path d="M158.863 208.771C163.028 213.418 165.626 216.312 165.626 216.312L169.749 213.418C167.99 210.202 166.257 207.067 164.562 204.049C162.696 205.652 160.788 207.222 158.863 208.771Z" fill="#FA9778"/>
<path d="M165.551 216.001L161.445 222.353L161.937 223.184L170.914 217.513C171.599 217.079 171.786 216.141 171.31 215.482L169.77 213.338L165.551 216.001Z" fill="#FF6168"/>
<path d="M111.218 206.059C112.1 213.375 112.672 218.054 112.672 218.054H117.709C118.158 214.008 118.532 210.197 118.847 206.622C116.302 206.445 113.757 206.257 111.218 206.059Z" fill="#FA9778"/>
<path d="M112.757 218.054L105.903 221.233L105.876 222.198H116.489C117.302 222.198 117.954 221.501 117.906 220.691L117.74 218.054H112.757Z" fill="#FF6168"/>
<path d="M108.924 97.7956C108.924 97.7956 100.807 111.377 101.123 121.368C101.438 131.359 111.72 214.914 111.72 214.914H118.997L121.686 134.371L131.113 177.035C131.573 179.104 132.551 181.023 133.968 182.599L162.969 214.919L169.455 210.636L145.886 170.684C145.886 170.684 141.828 112.616 126.958 97.8063C126.611 97.4525 108.924 97.7956 108.924 97.7956Z" fill="#42A3E8"/>
<path d="M129.017 108.038L134.749 135.009C136.695 143.992 138.625 152.981 140.807 161.905C141.352 164.134 141.908 166.364 142.523 168.572C142.833 169.677 143.148 170.781 143.533 171.847C143.726 172.383 143.929 172.909 144.223 173.332C144.565 173.804 144.924 174.275 145.223 174.763C147.736 178.627 150.078 182.578 152.414 186.533C154.746 190.494 157.055 194.46 159.355 198.443L166.177 210.417L159.13 198.571L152.061 186.742C149.671 182.824 147.335 178.858 144.822 175.036C144.512 174.549 144.175 174.104 143.843 173.648C143.475 173.123 143.271 172.565 143.068 172.024C142.673 170.931 142.352 169.827 142.036 168.717C141.411 166.498 140.844 164.268 140.293 162.039C138.154 153.093 136.214 144.105 134.353 135.1L131.621 121.583L129.017 108.038Z" fill="#290920"/>
<path d="M121.681 134.35L115.559 121.792L121.366 143.713L121.681 134.35Z" fill="#290920"/>
<path d="M99.9467 102.394C97.9149 101.081 95.4982 100.127 93.3006 98.9104C84.8634 118.093 75.1697 133.138 75.1697 133.138L78.2762 135.54C88.697 126.68 96.4071 114.379 101.706 103.552C101.123 103.166 100.54 102.78 99.9467 102.394Z" fill="#FA9778"/>
<path d="M78.3509 135.352C78.3509 135.352 76.0464 140.599 74.5119 141.569C74.1697 141.784 74.3301 140.996 74.7418 140.004C74.7418 140.004 72.9934 142.148 72.678 142.293C72.3625 142.438 74.2285 138.809 74.2285 138.809C74.2285 138.809 71.6567 142.288 71.2718 142.212C70.8868 142.132 73.0362 138.584 73.0362 138.584C73.0362 138.584 70.951 141.366 70.582 141.264C70.2131 141.162 72.8009 137.013 72.8009 137.013C72.8009 137.013 70.8387 137.271 70.9242 136.724C71.0098 136.177 72.7742 135.159 73.5014 134.88C74.2285 134.602 75.87 132.136 75.87 132.136L78.3509 135.352Z" fill="#FA9778"/>
<path d="M108.132 67.5659C108.132 67.5659 104.218 70.8193 102.909 73.4189C101.599 76.0184 90.7339 103.289 90.7339 103.289L100.118 108.574L112.244 82.6753L108.132 67.5659Z" fill="#FF6168"/>
<path d="M107.538 92.6715L105.576 82.043L106.779 94.2795L107.538 92.6715Z" fill="#290920"/>
<path d="M110.267 68.2268L116.947 67.1936L115.58 58.3156L108.901 59.3488L110.267 68.2268Z" fill="#FA9778"/>
<path d="M109.164 61.0377L109.597 63.8569C109.597 63.8569 113.671 62.785 114.89 60.491L109.164 61.0377Z" fill="#290920"/>
<path d="M113.116 77.0316C115.42 76.8333 117.12 74.1587 118.104 72.3257C118.799 71.0286 119.216 69.6297 119.564 68.2039C119.655 67.8341 119.767 67.4643 119.885 67.0891C118.388 66.8479 117.318 66.1404 116.666 65.4543L109.993 66.4888C109.608 67.2821 109.196 68.6274 108.218 69.5868C108.689 72.7812 109.833 77.321 113.116 77.0316Z" fill="#FA9778"/>
<path d="M108.923 97.7956H126.953C126.322 94.1509 128.851 77.2353 128.268 72.9045C127.691 68.5684 124.632 66.3494 121.889 66.7193C119.146 67.0891 116.66 65.4543 116.66 65.4543L111.084 73.7514L109.923 66.537C108.993 66.5692 108.175 67.1534 107.838 68.0271C107.186 69.7208 106.036 72.5079 104.913 74.1212C103.4 76.3027 103.545 82.9489 105.389 86.7544C107.239 90.5545 108.923 97.7956 108.923 97.7956Z" fill="#FF6168"/>
<path d="M108.875 67.7483L109.367 70.3156C109.522 71.1732 109.688 72.0254 109.875 72.8723C110.068 73.7138 110.244 74.5714 110.512 75.3753C110.581 75.5683 110.656 75.772 110.742 75.9274C110.768 76.0024 110.886 76.0507 110.736 76.0024C110.715 76.0078 110.811 75.9649 110.87 75.906C111.159 75.6594 111.426 75.3057 111.683 74.968C112.709 73.5905 113.618 72.1005 114.559 70.6426L117.345 66.2261C116.596 67.8019 115.768 69.3348 114.912 70.857C114.051 72.3738 113.153 73.8692 112.11 75.2949C111.838 75.6487 111.576 75.9971 111.201 76.3133C111.094 76.3883 111.009 76.4848 110.768 76.517C110.693 76.517 110.619 76.5116 110.544 76.4634C110.469 76.4151 110.469 76.3991 110.426 76.3615C110.357 76.2919 110.341 76.2436 110.298 76.1847C110.169 75.9596 110.1 75.7452 110.03 75.5308C109.774 74.6678 109.608 73.8156 109.474 72.9473C109.191 71.2215 108.993 69.4902 108.875 67.7483Z" fill="#290920"/>
<path d="M105.341 130.571L89.6692 140.535C88.8564 141.055 87.7764 140.798 87.2738 139.972C84.3972 135.24 80.3176 125.136 78.89 121.513C78.5853 120.741 78.874 119.868 79.5691 119.423L86.6696 114.91L90.6102 112.401C91.3053 111.956 92.2142 112.069 92.781 112.669C95.3956 115.446 102.566 123.201 105.843 128.148C106.383 128.963 106.159 130.051 105.341 130.571Z" fill="#FFB41B"/>
<path d="M90.0008 133.133L88.5678 139.56L67.6672 132.87L68.25 130.255L90.0008 133.133Z" fill="#FFB41B"/>
<path d="M68.6937 130.496L68.2018 132.688L63.9672 134.489L65.6247 127.06L68.6937 130.496Z" fill="#FFB41B"/>
<path d="M91.2358 114.165C91.4658 113.495 91.7384 112.926 92.0539 112.331C92.364 111.747 92.7329 111.184 93.15 110.643C93.9894 109.593 95.0748 108.569 96.5559 108.097C97.2831 107.861 98.0904 107.808 98.8443 107.92C99.2186 107.979 99.5875 108.076 99.9351 108.204C100.283 108.344 100.598 108.478 100.94 108.698C101.609 109.105 102.159 109.705 102.534 110.343C102.919 110.986 103.138 111.662 103.298 112.326C103.886 114.995 103.603 117.52 103.448 120.001C103.362 121.24 103.282 122.472 103.288 123.684C103.293 124.289 103.336 124.89 103.453 125.463C103.576 126.031 103.769 126.578 104.148 126.975L103.795 127.377C103.245 126.926 102.929 126.283 102.731 125.656C102.534 125.024 102.421 124.38 102.352 123.743C102.207 122.467 102.207 121.207 102.197 119.959C102.191 118.71 102.186 117.472 102.117 116.255C102.058 115.044 101.951 113.838 101.63 112.755C101.331 111.667 100.775 110.761 99.9672 110.338C99.7854 110.225 99.518 110.129 99.2828 110.048C99.0422 109.973 98.8015 109.914 98.5663 109.882C98.0904 109.823 97.6253 109.877 97.1761 110.021C96.2618 110.305 95.417 111.029 94.6845 111.876C93.9627 112.728 93.305 113.757 92.8024 114.76L91.2358 114.165Z" fill="#FFB41B"/>
<path d="M128.974 96.7825C117.489 104.174 108.159 108.976 106.597 109.769C106.597 109.775 106.587 109.775 106.587 109.775C106.587 109.775 106.587 109.775 106.581 109.775C105.742 110.134 104.544 110.589 104.058 110.52C103.063 110.375 100.363 110.037 100.363 110.734C100.363 111.581 101.566 112.455 101.566 112.455C101.566 112.455 100.673 113.082 101.208 113.795C101.208 113.795 100.983 114.373 101.475 114.775C101.475 114.775 101.459 114.797 101.438 114.84C101.026 115.553 101.652 116.432 102.464 116.287C102.684 116.249 102.951 116.196 103.24 116.126C103.24 116.174 103.24 116.217 103.24 116.265C103.437 116.174 103.646 116.073 103.854 115.965C105.191 115.574 106.854 114.85 107.806 113.532V113.543C117.205 111.951 126.322 108.242 134.39 103.906C134.604 103.793 134.812 103.67 135.026 103.557C133.037 101.274 131.022 99.0175 128.974 96.7825Z" fill="#FA9778"/>
<path d="M118.858 73.3279L126.707 68.7935C126.707 68.7935 138.304 83.9886 141.806 95.6999C141.806 95.6999 144.271 101.135 131.412 106.157L126.493 97.6508L130.343 95.4051L118.858 73.3279Z" fill="#FF6168"/>
<path d="M130.342 95.405L122.381 79.9204L126.626 97.7312L130.342 95.405Z" fill="#290920"/>
<path d="M80.2703 120.543C81.1846 119.862 82.1309 119.23 83.0827 118.603C84.0291 117.97 84.9968 117.38 85.9699 116.786C86.9484 116.201 87.9215 115.622 88.9214 115.076L90.4185 114.256C90.9264 113.998 91.429 113.73 91.9476 113.484C91.4932 113.832 91.0173 114.149 90.5575 114.481L89.1352 115.429C88.1888 116.057 87.2157 116.652 86.248 117.246C85.2695 117.831 84.2964 118.41 83.2965 118.956C82.302 119.508 81.3022 120.05 80.2703 120.543Z" fill="#290920"/>
<path d="M88.7339 138.943C90.0118 137.989 91.3217 137.078 92.6317 136.177C93.9417 135.272 95.273 134.403 96.6097 133.535C97.9518 132.677 99.2885 131.82 100.652 130.994L102.7 129.762C103.389 129.365 104.074 128.958 104.774 128.577C104.138 129.06 103.486 129.515 102.839 129.981L100.876 131.337C99.5665 132.243 98.2351 133.112 96.8984 133.98C95.5564 134.837 94.2197 135.695 92.8563 136.52C91.4982 137.357 90.1347 138.177 88.7339 138.943Z" fill="#290920"/>
<path d="M67.9727 132.335C67.8283 132.008 67.839 131.718 67.8871 131.429C67.9566 131.15 68.0582 130.877 68.3256 130.635C68.4753 130.962 68.4592 131.257 68.4111 131.541C68.3469 131.825 68.24 132.093 67.9727 132.335Z" fill="#290920"/>
<path d="M117.125 50.9075C117.088 50.9075 117.05 50.9075 117.018 50.9075L116.804 49.514C116.291 46.1641 113.163 43.8701 109.827 44.3846C108.153 44.6419 106.747 45.5584 105.822 46.8233C104.892 48.0883 104.453 49.7123 104.71 51.3846L105.469 56.3103C105.587 57.0767 105.843 57.7896 106.207 58.4274C107.431 60.566 109.875 61.8363 112.452 61.4396C115.468 60.9733 117.622 58.3684 117.628 55.3991C118.355 54.906 118.911 53.7161 118.948 52.9121C118.996 51.8509 118.178 50.9558 117.125 50.9075Z" fill="#FA9778"/>
<path d="M117.789 52.1135C117.415 52.3011 117.067 52.4833 116.794 52.7352C116.65 52.8585 116.548 53.0086 116.452 53.1694C116.351 53.3302 116.313 53.5231 116.249 53.7268C116.195 53.5231 116.179 53.298 116.249 53.0836C116.308 52.8692 116.436 52.6709 116.602 52.5208C116.768 52.3761 116.96 52.2582 117.163 52.1939C117.361 52.1296 117.575 52.092 117.789 52.1135Z" fill="#290920"/>
<path d="M117.324 54.2682C117.26 53.9413 117.217 53.6518 117.11 53.3946C117.062 53.2659 116.987 53.1534 116.901 53.0408C116.816 52.9229 116.693 52.8425 116.564 52.7353C116.73 52.7299 116.901 52.7728 117.046 52.8747C117.195 52.9711 117.308 53.1212 117.372 53.282C117.436 53.4482 117.463 53.6197 117.452 53.7858C117.441 53.9574 117.409 54.1235 117.324 54.2682Z" fill="#290920"/>
<path d="M111.624 56.0583C111.389 56.5622 110.913 56.9749 110.33 57.1089C110.036 57.1732 109.72 57.1464 109.453 57.0285C109.175 56.9266 108.961 56.7176 108.79 56.5032C109.052 56.6104 109.287 56.7176 109.533 56.7659C109.774 56.8141 110.02 56.8248 110.255 56.7659C110.731 56.6533 111.169 56.3746 111.624 56.0583Z" fill="#290920"/>
<path d="M109.244 52.3813C109.351 52.6761 109.421 52.9763 109.49 53.2764C109.528 53.4265 109.544 53.5927 109.539 53.7642C109.533 53.9357 109.474 54.1072 109.405 54.2519C109.271 54.536 109.063 54.7986 109.095 55.0184C109.138 55.2489 109.437 55.4365 109.715 55.5329C109.416 55.5437 109.041 55.4525 108.881 55.0774C108.811 54.8844 108.886 54.6914 108.94 54.5467C109.004 54.3967 109.084 54.2627 109.143 54.134C109.282 53.8768 109.287 53.6195 109.266 53.3086C109.25 53.0031 109.228 52.6922 109.244 52.3813Z" fill="#290920"/>
<path d="M113.345 51.3256C113.153 51.2291 112.918 51.1594 112.698 51.1165C112.474 51.079 112.249 51.0576 112.03 51.0737C111.811 51.1005 111.592 51.1326 111.378 51.2023C111.164 51.2613 110.955 51.347 110.731 51.422L110.715 51.4274C110.554 51.481 110.383 51.3953 110.33 51.2345C110.287 51.1058 110.335 50.9718 110.437 50.8968C110.875 50.5698 111.458 50.393 112.025 50.4251C112.308 50.4305 112.592 50.4948 112.854 50.5966C113.121 50.6985 113.351 50.8432 113.57 51.0415C113.645 51.1058 113.65 51.2237 113.581 51.2934C113.527 51.3524 113.436 51.3685 113.367 51.3309L113.345 51.3256Z" fill="#290920"/>
<path d="M111.217 53.3205C111.276 53.6957 111.623 53.9529 112.003 53.894C112.377 53.835 112.634 53.4866 112.575 53.1061C112.516 52.7309 112.169 52.4736 111.789 52.5326C111.415 52.5915 111.158 52.9453 111.217 53.3205Z" fill="#290920"/>
<path d="M112.864 52.6227C112.805 52.7192 112.741 52.7942 112.65 52.8692C112.565 52.9389 112.447 53.0032 112.308 53.0193L112.265 53.0247C112.164 53.0354 112.073 52.9604 112.062 52.8585C112.052 52.7567 112.126 52.6656 112.228 52.6548C112.255 52.6495 112.287 52.6548 112.314 52.6656C112.415 52.7031 112.597 52.6227 112.72 52.5155L112.725 52.5101C112.763 52.478 112.822 52.4833 112.854 52.5208C112.88 52.5476 112.886 52.5905 112.864 52.6227Z" fill="#290920"/>
<path d="M105.427 52.3063C105.577 52.049 105.753 51.84 105.978 51.6631C106.197 51.4863 106.443 51.3415 106.715 51.2504C107.25 51.0521 107.854 51.036 108.373 51.2183C108.533 51.2719 108.613 51.4487 108.56 51.6042C108.517 51.7328 108.394 51.8078 108.271 51.8078H108.255C108.02 51.8025 107.795 51.7864 107.571 51.7918C107.346 51.7918 107.127 51.8239 106.913 51.8668C106.699 51.915 106.491 52.0062 106.288 52.108C106.095 52.2152 105.887 52.3546 105.737 52.5046L105.705 52.5207C105.635 52.5904 105.523 52.5904 105.454 52.5207C105.395 52.4617 105.389 52.3706 105.427 52.3063Z" fill="#290920"/>
<path d="M108.352 53.7589C108.41 54.1341 108.154 54.4879 107.779 54.5468C107.405 54.6058 107.052 54.3485 106.993 53.9733C106.935 53.5981 107.191 53.2444 107.566 53.1854C107.945 53.1265 108.293 53.3837 108.352 53.7589Z" fill="#290920"/>
<path d="M106.678 53.4479C106.833 53.5123 107.031 53.5337 107.111 53.4694C107.191 53.4051 107.309 53.4211 107.373 53.5015C107.437 53.5819 107.421 53.6999 107.341 53.7642C107.32 53.7803 107.293 53.7963 107.266 53.8017L107.223 53.8124C107.084 53.8446 106.956 53.8178 106.849 53.7749C106.742 53.732 106.657 53.6731 106.571 53.6034C106.534 53.5712 106.528 53.5123 106.56 53.4747C106.587 53.4426 106.63 53.4319 106.667 53.4479H106.678Z" fill="#290920"/>
<path d="M108.202 56.6425C108.336 57.5162 107.737 58.3309 106.871 58.4649C106.641 58.5024 106.416 58.4863 106.208 58.4274C105.839 57.7896 105.587 57.0821 105.47 56.3102L105.4 55.8707C105.641 55.5759 105.983 55.3723 106.384 55.3079C107.25 55.1686 108.063 55.7689 108.202 56.6425Z" fill="#FA7C55"/>
<path d="M111.736 56.0905C111.87 56.9641 112.682 57.5591 113.554 57.4251C114.425 57.2911 115.019 56.4764 114.885 55.6027C114.752 54.7291 113.939 54.1341 113.067 54.2681C112.201 54.4021 111.602 55.2222 111.736 56.0905Z" fill="#FA7C55"/>
<path d="M112.944 48.9084C112.944 48.9084 114.013 52.596 114.922 53.3088L116.361 51.6634C116.943 50.9934 118.013 50.9451 118.585 51.6205C118.649 51.7009 118.713 51.7866 118.761 51.8831C119.194 52.7568 119.071 54.1557 117.633 55.3992L115.778 58.7812C115.484 59.3226 115.35 59.9389 115.398 60.5553L115.762 65.2023C115.762 65.2023 119.355 65.8455 121.627 64.6342C122.167 64.3447 122.472 63.7498 122.429 63.1334C122.194 59.8853 121.119 48.635 117.542 45.8586C117.542 45.8586 112.126 40.6274 106.512 44.8671C100.898 49.1067 104.063 62.308 104.255 63.6533C104.336 64.1947 104.437 64.7682 104.534 65.2666C104.683 66.0277 105.362 66.5583 106.132 66.5262L109.95 66.3493L109.175 61.0377C109.175 61.0377 106.827 60.1265 105.721 57.5109L104.812 51.9206C104.801 51.9206 108.987 52.5156 112.944 48.9084Z" fill="#290920"/>
<path d="M125.049 49.3532L118.585 45.4084H118.569C118.366 42.4015 115.874 40.0217 112.827 40.0217H110.773C107.72 40.0217 105.229 42.3961 105.026 45.403H105.004L97.7218 49.3747C97.3582 49.573 97.4545 50.125 97.8662 50.184C105.993 51.2988 120.408 50.4573 124.857 50.1572C125.274 50.1197 125.408 49.573 125.049 49.3532Z" fill="#FFB41B"/>
<path d="M105.758 45.3281C107.72 45.119 109.677 45.0708 111.639 45.0601C113.601 45.0654 115.558 45.1137 117.521 45.3281C115.558 45.5424 113.601 45.5907 111.639 45.596C109.677 45.5853 107.714 45.5371 105.758 45.3281Z" fill="#290920"/>
</svg>
